<svg xmlns="http://www.w3.org/2000/svg" viewBox="0 0 19.11 14.63"><defs><style>.cls-1{fill:#c02227;}</style></defs><title>Asset 3</title><g id="Layer_2" data-name="Layer 2"><g id="Layer_1-2" data-name="Layer 1"><path id="Icono_dirección" data-name="Icono dirección" class="cls-1" d="M.32,6.34H1.91v7.29a1,1,0,0,0,1,1H16.22a1,1,0,0,0,1-1V6.34H18.8a.29.29,0,0,0,.27-.16.29.29,0,0,0,0-.31L17.2,2.14V.32A.32.32,0,0,0,16.88,0H2.22a.31.31,0,0,0-.31.31h0V2.14L0,5.88a.34.34,0,0,0,0,.31A.35.35,0,0,0,.32,6.34ZM5.5,2.54,4.61,5.71h-2L4.08,2.54Zm9.44,0,1.47,3.17h-2l-.88-3.17Zm-2.07,0,.89,3.17H11.41l-.3-3.17Zm-2.39,0,.29,3.17H8.26l.29-3.17ZM7.61,5.71H5.27l.88-3.17H7.91ZM9.2,14H7.29V8.85H9.2Zm.63,0V8.85h1.9v5.07Zm6.66-.32a.33.33,0,0,1-.32.32h-3.8V8.56a.32.32,0,0,0-.32-.32H7a.32.32,0,0,0-.32.32V14H2.86a.32.32,0,0,1-.32-.32V6.34h14Zm.62-7.92h0L15.66,2.59h1l1.58,3.17ZM16.49.63V1.9h-14V.63ZM2.42,2.54h1L2,5.66H.89Z"/></g></g></svg>