<svg xmlns="http://www.w3.org/2000/svg" viewBox="0 0 22.64 14.34"><defs><style>.cls-1{fill:#fff;}</style></defs><title>Asset 5</title><g id="Layer_2" data-name="Layer 2"><g id="Chat"><g id="Icon"><path class="cls-1" d="M20.2,0H2.44A2.44,2.44,0,0,0,0,2.44H0V11.9a2.44,2.44,0,0,0,2.44,2.44H20.2a2.44,2.44,0,0,0,2.44-2.44h0V2.44A2.44,2.44,0,0,0,20.2,0Zm1.68,11.9a1.68,1.68,0,0,1-1.68,1.68H2.44A1.69,1.69,0,0,1,.75,11.9h0V2.44A1.69,1.69,0,0,1,2.44.75H20.2a1.69,1.69,0,0,1,1.68,1.69h0Z"/><path class="cls-1" d="M20.16,1.58,11.32,7.94,2.48,1.58A.38.38,0,1,0,2,2.15l.05,0,5.57,4L2,11.81a.38.38,0,0,0,0,.53H2a.37.37,0,0,0,.53,0h0l5.7-5.7L11.1,8.71a.36.36,0,0,0,.44,0L14,7l5.76,5.4a.4.4,0,0,0,.26.1.36.36,0,0,0,.27-.12.37.37,0,0,0,0-.53L14.61,6.52l6-4.33a.37.37,0,0,0-.43-.61Z"/></g></g></g></svg>