<svg xmlns="http://www.w3.org/2000/svg" viewBox="0 0 11.26 11.32"><defs><style>.cls-1{fill:#c02227;}</style></defs><title>Asset 2</title><g id="Layer_2" data-name="Layer 2"><g id="Layer_1-2" data-name="Layer 1"><path id="Icono_teléfono" data-name="Icono teléfono" class="cls-1" d="M1.92,0a.5.5,0,0,1,.35.21L3.62,2.08a.6.6,0,0,1,.1.43.63.63,0,0,1-.19.41L2.39,4.06A20.85,20.85,0,0,0,7.17,8.84L8.32,7.7a.6.6,0,0,1,.4-.18.62.62,0,0,1,.44.11L11,9a.54.54,0,0,1,.21.36.44.44,0,0,1-.13.39L9.55,11.32h-.3a3.86,3.86,0,0,1-.9-.16Q7.68,11,7,10.71a9.12,9.12,0,0,1-1.74-1A14.22,14.22,0,0,1,3.29,8,13.45,13.45,0,0,1,1.6,6a10.47,10.47,0,0,1-1-1.71A8,8,0,0,1,.15,2.93,4.4,4.4,0,0,1,0,2.06V1.75L1.57.18A.44.44,0,0,1,1.92,0Z"/></g></g></svg>