<svg xmlns="http://www.w3.org/2000/svg" viewBox="0 0 12.04 12.04"><defs><style>.cls-1{fill:#c02227;}</style></defs><title>Asset 2</title><g id="Layer_2" data-name="Layer 2"><g id="Sección_contacto" data-name="Sección contacto"><path id="Icono_nombre" data-name="Icono nombre" class="cls-1" d="M12,10.61V12H0V10.61L4,8V7c-.24,0-.47-.24-.68-.74A3.41,3.41,0,0,1,3,5V3A2.94,2.94,0,0,1,3.89.88,2.9,2.9,0,0,1,6,0,2.9,2.9,0,0,1,8.15.88,2.9,2.9,0,0,1,9,3V5a3.37,3.37,0,0,1-.31,1.26C8.51,6.78,8.28,7,8,7V8Z"/></g></g></svg>