<?xml version="1.0" encoding="utf-8"?>
<!-- Generator: Adobe Illustrator 23.1.0, SVG Export Plug-In . SVG Version: 6.00 Build 0)  -->
<svg version="1.1" id="Layer_1" xmlns="http://www.w3.org/2000/svg" xmlns:xlink="http://www.w3.org/1999/xlink" x="0px" y="0px"
	 viewBox="0 0 109 10" style="enable-background:new 0 0 109 10;" xml:space="preserve">
<style type="text/css">
	.st0{fill:#FFFFFF;}
</style>
<g>
	<path class="st0" d="M0.9,2.6h1.4v0.7C2.6,3,2.9,2.8,3.2,2.6c0.3-0.1,0.6-0.2,1-0.2c0.4,0,0.7,0.1,1,0.3c0.3,0.2,0.5,0.4,0.7,0.8
		c0.2-0.3,0.5-0.6,0.8-0.8C7,2.5,7.4,2.4,7.8,2.4c0.4,0,0.8,0.1,1.1,0.3c0.3,0.2,0.5,0.4,0.7,0.7C9.7,3.8,9.7,4.3,9.7,5v3.4H8.3V5.4
		c0-0.7-0.1-1.1-0.2-1.3C7.9,3.9,7.6,3.7,7.3,3.7c-0.2,0-0.5,0.1-0.7,0.2C6.4,4.1,6.3,4.3,6.2,4.5C6.1,4.8,6.1,5.2,6.1,5.7v2.6H4.6
		V5.5c0-0.5,0-0.9-0.1-1.1C4.4,4.2,4.3,4,4.1,3.9C4,3.8,3.8,3.7,3.6,3.7C3.3,3.7,3.1,3.8,2.9,4C2.7,4.1,2.6,4.3,2.5,4.6
		C2.4,4.8,2.3,5.2,2.3,5.8v2.6H0.9V2.6z"/>
	<path class="st0" d="M12.5,0.3v2.9c0.3-0.3,0.5-0.5,0.8-0.6c0.3-0.1,0.6-0.2,1-0.2c0.8,0,1.4,0.3,1.9,0.9c0.5,0.6,0.8,1.3,0.8,2.2
		c0,0.9-0.3,1.6-0.8,2.2c-0.5,0.6-1.2,0.9-1.9,0.9c-0.3,0-0.6-0.1-0.9-0.2c-0.3-0.1-0.6-0.3-0.9-0.6v0.6h-1.4v-8H12.5z M14.1,3.8
		c-0.5,0-0.8,0.2-1.1,0.5c-0.3,0.3-0.5,0.7-0.5,1.2c0,0.5,0.2,0.9,0.5,1.2c0.3,0.3,0.7,0.5,1.1,0.5c0.4,0,0.8-0.2,1.1-0.5
		c0.3-0.3,0.5-0.7,0.5-1.2c0-0.5-0.1-0.9-0.4-1.2C14.9,3.9,14.5,3.8,14.1,3.8z"/>
	<path class="st0" d="M21,2.4c0.5,0,1.1,0.1,1.5,0.4c0.5,0.3,0.9,0.6,1.1,1.1c0.3,0.5,0.4,1,0.4,1.5C24,6,23.9,6.5,23.6,7
		c-0.3,0.5-0.6,0.8-1.1,1.1c-0.5,0.3-1,0.4-1.5,0.4c-0.8,0-1.5-0.3-2.1-0.9C18.3,7,18,6.3,18,5.5c0-0.9,0.3-1.7,1-2.3
		C19.6,2.7,20.2,2.4,21,2.4z M21,3.8c-0.4,0-0.8,0.2-1.1,0.5c-0.3,0.3-0.4,0.7-0.4,1.2c0,0.5,0.1,0.9,0.4,1.2s0.7,0.5,1.1,0.5
		c0.5,0,0.8-0.2,1.1-0.5c0.3-0.3,0.5-0.7,0.5-1.2c0-0.5-0.1-0.9-0.4-1.2C21.8,3.9,21.5,3.8,21,3.8z"/>
</g>
<g>
	<path class="st0" d="M39.7,6.4l-1,2.5h-0.5l3.2-8l3.2,8h-0.5l-1-2.5H39.7z M41.5,2.2l-1.5,3.7h3L41.5,2.2z"/>
	<path class="st0" d="M49.4,8.9h-0.6l-2.5-3.7h-0.2v3.7h-0.5V1.2h1c0.6,0,1.2,0,1.8,0.4c0.6,0.4,0.8,1,0.8,1.7c0,1.3-0.9,2-2.2,2
		L49.4,8.9z M46.7,4.8c0.5,0,1,0,1.4-0.4c0.4-0.3,0.5-0.8,0.5-1.2c0-0.6-0.3-1.1-0.8-1.4c-0.4-0.2-0.9-0.2-1.4-0.2h-0.3v3.2H46.7z"
		/>
	<path class="st0" d="M56.7,8.1C56,8.7,55,9,54.1,9c-2.2,0-4-1.8-4-4c0-2.2,1.8-4,4-4c2.2,0,4,1.8,4,3.9c0,1.1-0.4,2-1.1,2.8l1,1.1
		h-0.7L56.7,8.1z M56.7,7.4c0.6-0.7,1-1.4,1-2.3c0-1.9-1.5-3.6-3.5-3.6c-1.9,0-3.5,1.6-3.5,3.5c0,1.9,1.6,3.5,3.6,3.5
		c0.8,0,1.5-0.3,2.2-0.8l-1.9-2h0.7L56.7,7.4z"/>
	<path class="st0" d="M64,1.2h0.5V6c0,0.8,0,1.5-0.5,2.1C63.5,8.7,62.7,9,61.9,9c-0.8,0-1.6-0.3-2.1-0.9c-0.5-0.6-0.5-1.3-0.5-2.1
		V1.2h0.5v4.7c0,0.7,0,1.4,0.4,2c0.4,0.5,1.1,0.7,1.7,0.7c0.6,0,1.4-0.3,1.7-0.7C64,7.3,64,6.5,64,5.8V1.2z"/>
	<path class="st0" d="M66.6,8.9h-0.5V1.2h0.5V8.9z"/>
	<path class="st0" d="M70,8.9h-0.5V1.6h-2V1.2H72v0.5h-2V8.9z"/>
	<path class="st0" d="M73.4,1.6v2.8h3.1v0.5h-3.1v3.5h3.2v0.5h-3.7V1.2h3.7v0.5H73.4z"/>
	<path class="st0" d="M84.2,2.7c-0.6-0.7-1.6-1.2-2.6-1.2c-1.9,0-3.5,1.7-3.5,3.6c0,0.9,0.4,1.8,1,2.4c0.6,0.6,1.6,1.1,2.5,1.1
		c0.9,0,2-0.5,2.6-1.2V8c-0.7,0.6-1.6,1-2.6,1c-2.2,0-4-1.8-4-4c0-2.2,1.8-4,4-4c0.9,0,1.9,0.4,2.6,1V2.7z"/>
	<path class="st0" d="M87.4,8.9h-0.5V1.6h-2V1.2h4.5v0.5h-2V8.9z"/>
	<path class="st0" d="M95,1.2h0.5V6c0,0.8,0,1.5-0.5,2.1C94.4,8.7,93.6,9,92.8,9s-1.6-0.3-2.1-0.9c-0.5-0.6-0.5-1.3-0.5-2.1V1.2h0.5
		v4.7c0,0.7,0,1.4,0.4,2c0.4,0.5,1.1,0.7,1.7,0.7s1.4-0.3,1.7-0.7C95,7.3,95,6.5,95,5.8V1.2z"/>
	<path class="st0" d="M100.9,8.9h-0.6l-2.5-3.7h-0.2v3.7h-0.5V1.2h1c0.6,0,1.2,0,1.8,0.4c0.6,0.4,0.8,1,0.8,1.7c0,1.3-0.9,2-2.2,2
		L100.9,8.9z M98.2,4.8c0.5,0,1,0,1.4-0.4c0.4-0.3,0.5-0.8,0.5-1.2c0-0.6-0.3-1.1-0.8-1.4c-0.4-0.2-0.9-0.2-1.4-0.2h-0.3v3.2H98.2z"
		/>
	<path class="st0" d="M102.8,6.4l-1,2.5h-0.5l3.2-8l3.2,8h-0.5l-1-2.5H102.8z M104.5,2.2L103,5.9h3L104.5,2.2z"/>
</g>
<g>
	<path class="st0" d="M30.3,4.5V1.9h1.7v2.6h2.6v1.7h-2.6v2.6h-1.7V6.2h-2.6V4.5H30.3z"/>
</g>
</svg>
